{
    "asset" : {
        "generator" : "Khronos glTF Blender I/O v3.2.43",
        "version" : "2.0"
    },
    "scene" : 0,
    "scenes" : [
        {
            "name" : "Scene",
            "nodes" : [
                0
            ]
        }
    ],
    "nodes" : [
        {
            "mesh" : 0,
            "name" : "Beta_Surface",
            "rotation" : [
                0.7071068286895752,
                0,
                0,
                0.7071067094802856
            ],
            "scale" : [
                0.009999999776482582,
                0.009999999776482582,
                0.009999999776482582
            ]
        }
    ],
    "animations" : [
        {
            "channels" : [
                {
                    "sampler" : 0,
                    "target" : {
                        "node" : 0,
                        "path" : "translation"
                    }
                },
                {
                    "sampler" : 1,
                    "target" : {
                        "node" : 0,
                        "path" : "rotation"
                    }
                },
                {
                    "sampler" : 2,
                    "target" : {
                        "node" : 0,
                        "path" : "scale"
                    }
                }
            ],
            "name" : "Beta_Surface",
            "samplers" : [
                {
                    "input" : 4,
                    "interpolation" : "LINEAR",
                    "output" : 5
                },
                {
                    "input" : 4,
                    "interpolation" : "LINEAR",
                    "output" : 6
                },
                {
                    "input" : 4,
                    "interpolation" : "LINEAR",
                    "output" : 7
                }
            ]
        }
    ],
    "materials" : [
        {
            "doubleSided" : true,
            "name" : "Beta_HighLimbsGeoSG3",
            "pbrMetallicRoughness" : {
                "baseColorFactor" : [
                    0.8370000123977661,
                    0.30230802297592163,
                    0.26365500688552856,
                    1
                ],
                "metallicFactor" : 0,
                "roughnessFactor" : 0.8082915544509888
            }
        }
    ],
    "meshes" : [
        {
            "name" : "Beta_Surface",
            "primitives" : [
                {
                    "attributes" : {
                        "POSITION" : 0,
                        "NORMAL" : 1,
                        "TEXCOORD_0" : 2
                    },
                    "indices" : 3,
                    "material" : 0
                }
            ]
        }
    ],
    "accessors" : [
        {
            "bufferView" : 0,
            "componentType" : 5126,
            "count" : 15901,
            "max" : [
                90.25658416748047,
                17.174169540405273,
                0.03219377622008324
            ],
            "min" : [
                -90.25662231445312,
                -14.895703315734863,
                -180.88832092285156
            ],
            "type" : "VEC3"
        },
        {
            "bufferView" : 1,
            "componentType" : 5126,
            "count" : 15901,
            "type" : "VEC3"
        },
        {
            "bufferView" : 2,
            "componentType" : 5126,
            "count" : 15901,
            "type" : "VEC2"
        },
        {
            "bufferView" : 3,
            "componentType" : 5123,
            "count" : 84816,
            "type" : "SCALAR"
        },
        {
            "bufferView" : 4,
            "componentType" : 5126,
            "count" : 156,
            "max" : [
                2.6
            ],
            "min" : [
                0.016666666666666666
            ],
            "type" : "SCALAR"
        },
        {
            "bufferView" : 5,
            "componentType" : 5126,
            "count" : 156,
            "type" : "VEC3"
        },
        {
            "bufferView" : 6,
            "componentType" : 5126,
            "count" : 156,
            "type" : "VEC4"
        },
        {
            "bufferView" : 7,
            "componentType" : 5126,
            "count" : 156,
            "type" : "VEC3"
        }
    ],
    "bufferViews" : [
        {
            "buffer" : 0,
            "byteLength" : 190812,
            "byteOffset" : 0
        },
        {
            "buffer" : 0,
            "byteLength" : 190812,
            "byteOffset" : 190812
        },
        {
            "buffer" : 0,
            "byteLength" : 127208,
            "byteOffset" : 381624
        },
        {
            "buffer" : 0,
            "byteLength" : 169632,
            "byteOffset" : 508832
        },
        {
            "buffer" : 0,
            "byteLength" : 624,
            "byteOffset" : 678464
        },
        {
            "buffer" : 0,
            "byteLength" : 1872,
            "byteOffset" : 679088
        },
        {
            "buffer" : 0,
            "byteLength" : 2496,
            "byteOffset" : 680960
        },
        {
            "buffer" : 0,
            "byteLength" : 1872,
            "byteOffset" : 683456
        }
    ],
    "buffers" : [
        {
            "byteLength" : 685328,
            "uri" : "data:application/octet-stream;base64,"
        }
    ]
}
